#N canvas 433 244 808 738 10;
#X obj 31 21 mrpeach/udpreceive 8000;
#X obj 31 42 mrpeach/unpackOSC;
#X obj 31 63 mrpeach/routeOSC /Manta;
#X obj 32 82 mrpeach/routeOSC /Pad /Slider /Button;
#X obj 32 147 dac~;
#N canvas 0 0 450 300 slidernote 0;
#X obj 128 73 unpack f f;
#X obj 185 99 select 65535;
#X obj 128 149 osc~;
#X msg 186 130 0;
#X obj 142 182 *~ 0;
#X obj 247 131 t b f;
#X msg 247 157 0.25;
#X obj 299 158 / 4096;
#X obj 299 208 + 60;
#X obj 299 232 mtof;
#X obj 299 183 * 16;
#X obj 129 32 inlet;
#X obj 141 230 outlet~;
#X connect 0 1 1 0;
#X connect 1 0 3 0;
#X connect 1 1 5 0;
#X connect 2 0 4 0;
#X connect 3 0 4 1;
#X connect 4 0 12 0;
#X connect 5 0 6 0;
#X connect 5 1 7 0;
#X connect 6 0 4 1;
#X connect 7 0 10 0;
#X connect 8 0 9 0;
#X connect 9 0 2 0;
#X connect 10 0 8 0;
#X connect 11 0 0 0;
#X restore 105 104 pd slidernote;
#N canvas 589 145 427 266 padnote 0;
#X obj 146 22 inlet;
#X obj 147 189 outlet~;
#X obj 146 51 unpack f f;
#X obj 146 96 mtof;
#X obj 146 118 osc~;
#X obj 147 155 *~;
#X obj 203 118 line~;
#X msg 203 97 \$1 20;
#X obj 203 75 / 512;
#X obj 146 73 + 50;
#X connect 0 0 2 0;
#X connect 2 0 9 0;
#X connect 2 1 8 0;
#X connect 3 0 4 0;
#X connect 4 0 5 0;
#X connect 5 0 1 0;
#X connect 6 0 5 1;
#X connect 7 0 6 0;
#X connect 8 0 7 0;
#X connect 9 0 3 0;
#X restore 32 104 pd padnote;
#X obj 221 662 mrpeach/packOSC;
#X msg 4 385 connect 127.0.0.1 8001;
#X obj 221 689 mrpeach/udpsend;
#X obj 198 266 hsl 128 15 0 7 0 0 empty empty empty -2 -8 0 10 -262144
-1 -1 7100 1;
#X obj 254 335 hsl 128 15 0 5 0 0 empty empty empty -2 -8 0 10 -262144
-1 -1 6300 1;
#N canvas 0 0 439 292 ChooseRow 0;
#X obj 85 61 int;
#X obj 85 90 select 0;
#X obj 153 90 t f f;
#X obj 85 37 inlet;
#X obj 185 234 outlet;
#X obj 219 163 f 0;
#X obj 180 134 t f f b;
#X msg 219 185 \$1 0;
#X msg 155 184 \$1 255;
#X connect 0 0 1 0;
#X connect 1 1 2 0;
#X connect 2 0 1 1;
#X connect 2 1 6 0;
#X connect 3 0 0 0;
#X connect 5 0 7 0;
#X connect 6 0 8 0;
#X connect 6 1 5 1;
#X connect 6 2 5 0;
#X connect 7 0 4 0;
#X connect 8 0 4 0;
#X restore 251 353 pd ChooseRow;
#N canvas 0 0 439 292 ChooseColumn 0;
#X obj 85 61 int;
#X obj 85 90 select 0;
#X obj 153 90 t f f;
#X obj 85 37 inlet;
#X obj 185 234 outlet;
#X obj 219 163 f 0;
#X obj 180 134 t f f b;
#X msg 219 185 \$1 0;
#X msg 155 184 \$1 255;
#X connect 0 0 1 0;
#X connect 1 1 2 0;
#X connect 2 0 1 1;
#X connect 2 1 6 0;
#X connect 3 0 0 0;
#X connect 5 0 7 0;
#X connect 6 0 8 0;
#X connect 6 1 5 1;
#X connect 6 2 5 0;
#X connect 7 0 4 0;
#X connect 8 0 4 0;
#X restore 195 285 pd ChooseColumn;
#X obj 290 410 hsl 128 15 0 7 0 0 empty empty empty -2 -8 0 10 -262144
-1 -1 0 1;
#X obj 287 452 <<;
#X msg 287 430 1 \$1;
#X obj 331 498 tgl 15 0 empty empty empty 17 7 0 10 -262144 -1 -1 0
1;
#X msg 195 306 send /Manta/LED/Pad/Column Amber \$1 \$2;
#X msg 287 474 send /Manta/LED/Slider 0 \$1;
#X msg 102 197 send /Manta/LEDControl PadAndButton \$1;
#X msg 135 236 send /Manta/LEDControl Slider \$1;
#X obj 102 174 tgl 15 0 empty empty empty 17 7 0 10 -262144 -1 -1 1
1;
#X obj 135 217 tgl 15 0 empty empty empty 17 7 0 10 -262144 -1 -1 0
1;
#X obj 4 343 loadbang;
#X obj 4 366 bng 15 250 50 0 empty empty empty 17 7 0 10 -262144 -1
-1;
#X text 23 363 Click to Connect;
#X text 126 170 Click to Toggle LED control;
#X msg 251 373 send /Manta/LED/Pad/Row Red \$1 \$2;
#X obj 331 519 select 1;
#X msg 415 547 symbol Off;
#X msg 332 544 symbol Amber;
#X msg 334 577 send /Manta/LED/Button \$1 2;
#X connect 0 0 1 0;
#X connect 1 0 2 0;
#X connect 2 0 3 0;
#X connect 3 0 6 0;
#X connect 3 1 5 0;
#X connect 5 0 4 0;
#X connect 5 0 4 1;
#X connect 6 0 4 0;
#X connect 6 0 4 1;
#X connect 7 0 9 0;
#X connect 8 0 9 0;
#X connect 10 0 13 0;
#X connect 11 0 12 0;
#X connect 12 0 28 0;
#X connect 13 0 18 0;
#X connect 14 0 16 0;
#X connect 15 0 19 0;
#X connect 16 0 15 0;
#X connect 17 0 29 0;
#X connect 18 0 7 0;
#X connect 19 0 7 0;
#X connect 20 0 7 0;
#X connect 21 0 7 0;
#X connect 22 0 20 0;
#X connect 23 0 21 0;
#X connect 24 0 25 0;
#X connect 25 0 8 0;
#X connect 28 0 7 0;
#X connect 29 0 31 0;
#X connect 29 1 30 0;
#X connect 30 0 32 0;
#X connect 31 0 32 0;
#X connect 32 0 7 0;
