#N canvas 60 101 541 291 10;
#X obj 221 -6 inlet;
#X obj 273 151 outlet;
#X obj 221 19 t f f;
#X obj 222 48 select 0;
#X text 14 31 filter out repeat values;
#X obj 273 104 spigot 1;
#X obj 360 70 f 0;
#X obj 360 126 f 1;
#X obj 273 126 t f b;
#X obj 360 105 delay 100;
#X text 4 135 limit flow to 1 number every 50ms;
#X obj 222 77 select \$1;
#X obj 222 102 f \$1;
#X text 0 81 always send the argument through;
#X connect 0 0 2 0;
#X connect 2 0 3 1;
#X connect 2 1 3 0;
#X connect 3 1 11 0;
#X connect 5 0 8 0;
#X connect 6 0 5 1;
#X connect 7 0 5 1;
#X connect 8 0 1 0;
#X connect 8 1 6 0;
#X connect 8 1 9 0;
#X connect 9 0 7 0;
#X connect 11 0 12 0;
#X connect 11 1 5 0;
#X connect 12 0 1 0;
