#N canvas 299 22 813 693 10;
#X obj 211 174 dac~;
#N canvas 8 73 402 472 slidernote 0;
#X obj 93 253 osc~;
#X obj 95 132 + 60;
#X obj 95 152 mtof;
#X obj 95 112 * 16;
#X obj 61 24 inlet;
#X obj 104 326 outlet~;
#X obj 187 175 line~ 0;
#X obj 104 302 *~;
#X obj 95 92 / 1024;
#X msg 95 174 \$1 10;
#X obj 61 49 unpack f f f;
#X msg 187 151 \$1 100;
#X obj 95 194 line~ 0;
#X obj 186 118 * 0.25;
#X connect 0 0 7 0;
#X connect 1 0 2 0;
#X connect 2 0 9 0;
#X connect 3 0 1 0;
#X connect 4 0 10 0;
#X connect 6 0 7 1;
#X connect 7 0 5 0;
#X connect 8 0 3 0;
#X connect 9 0 12 0;
#X connect 10 1 8 0;
#X connect 10 2 13 0;
#X connect 11 0 6 0;
#X connect 12 0 0 0;
#X connect 13 0 11 0;
#X restore 231 143 pd slidernote;
#X obj 8 341 s \$0-velocity;
#X obj 17 319 s \$0-continuous;
#X obj 26 297 s \$0-slider;
#X obj 212 75 route pad;
#X obj 212 51 r \$0-continuous;
#X obj 231 122 r \$0-slider;
#X obj 34 275 s \$0-padframe;
#N canvas 498 95 802 578 LED_Examples 0;
#X msg 61 52 amber;
#X msg 68 74 red;
#X msg 51 28 off;
#X obj 51 102 symbol;
#X msg 334 55 amber;
#X msg 341 77 red;
#X msg 322 32 off;
#X obj 322 100 symbol;
#X msg 322 124 row \$1 3 255;
#X msg 617 49 amber;
#X msg 624 71 red;
#X msg 604 25 off;
#X obj 604 95 symbol;
#X msg 588 126 column \$1 3 255;
#X msg 63 268 amber;
#X msg 70 290 red;
#X msg 55 247 off;
#X obj 55 313 symbol;
#X text 300 167 Set a row of pad LEDs;
#X text 566 169 Set a column of pads LEDs;
#X obj 27 441 tgl 45 0 empty empty Pad_And_Button_LED_Control -20 -8
0 10 -4034 -1 -1 0 1;
#X obj 262 441 tgl 45 0 empty empty Slider_LED_Control -20 -8 0 10
-4034 -1 -1 0 1;
#X msg 27 507 ledcontrol padandbutton \$1;
#X msg 262 508 ledcontrol slider \$1;
#X msg 331 327 slider 1 \$1;
#X obj 334 267 hsl 64 15 -1 7 0 0 empty empty empty -2 -8 0 10 -262144
-1 -1 0 1;
#X obj 331 286 int;
#X floatatom 331 307 5 0 0 0 - - -;
#X msg 627 284 amber;
#X msg 616 260 off;
#X obj 616 311 symbol;
#X text 598 380 Set slider LEDs;
#X text 295 372 Set a single slider LED;
#X msg 616 335 slidermask \$1 1 255;
#X obj 573 58 vradio 15 1 0 3 empty empty empty 0 -8 0 10 -262144 -1
-1 0;
#X obj 298 51 vradio 15 1 0 3 empty empty empty 0 -8 0 10 -262144 -1
-1 0;
#X obj 29 56 vradio 15 1 0 3 empty empty empty 0 -8 0 10 -262144 -1
-1 0;
#X obj 26 264 vradio 15 1 0 3 empty empty empty 0 -8 0 10 -262144 -1
-1 0;
#X obj 443 440 tgl 45 0 empty empty Button_LED_Control -20 -8 0 10
-4034 -1 -1 0 1;
#X msg 443 507 ledcontrol button \$1;
#X text 27 171 Set a list of pad LEDs;
#X msg 51 126 pad \$1 27 35 36;
#X text 33 380 Set a list of button LEDs;
#X msg 55 337 button \$1 0 3;
#X msg 607 495 ledsoff;
#X obj 607 441 bng 45 250 50 0 empty empty Clear_Pad_And_Button_LEDs
-15 -10 0 10 -258113 -1 -1;
#X text 437 220 Warning: Take care when using slider mask to not have
more than 54 LEDs on at any one time;
#X obj 51 148 s \$0-manta;
#X obj 322 146 s \$0-manta;
#X obj 588 148 s \$0-manta;
#X obj 616 357 s \$0-manta;
#X obj 331 349 s \$0-manta;
#X obj 55 359 s \$0-manta;
#X obj 607 520 s \$0-manta;
#X obj 443 528 s \$0-manta;
#X obj 262 529 s \$0-manta;
#X obj 27 527 s \$0-manta;
#X connect 0 0 3 0;
#X connect 1 0 3 0;
#X connect 2 0 3 0;
#X connect 3 0 41 0;
#X connect 4 0 7 0;
#X connect 5 0 7 0;
#X connect 6 0 7 0;
#X connect 7 0 8 0;
#X connect 8 0 48 0;
#X connect 9 0 12 0;
#X connect 10 0 12 0;
#X connect 11 0 12 0;
#X connect 12 0 13 0;
#X connect 13 0 49 0;
#X connect 14 0 17 0;
#X connect 15 0 17 0;
#X connect 16 0 17 0;
#X connect 17 0 43 0;
#X connect 20 0 22 0;
#X connect 21 0 23 0;
#X connect 22 0 56 0;
#X connect 23 0 55 0;
#X connect 24 0 51 0;
#X connect 25 0 26 0;
#X connect 26 0 27 0;
#X connect 27 0 24 0;
#X connect 28 0 30 0;
#X connect 29 0 30 0;
#X connect 30 0 33 0;
#X connect 33 0 50 0;
#X connect 34 0 13 0;
#X connect 35 0 8 0;
#X connect 36 0 41 0;
#X connect 37 0 43 0;
#X connect 38 0 39 0;
#X connect 39 0 54 0;
#X connect 41 0 47 0;
#X connect 43 0 52 0;
#X connect 44 0 53 0;
#X connect 45 0 44 0;
#X restore 209 18 pd LED_Examples;
#X text 355 16 Open this subpatch for LED Examples;
#X obj 210 291 list split 4;
#X obj 210 312 unpack f f f f;
#X floatatom 178 358 5 0 0 0 - - -;
#X floatatom 225 358 5 0 0 0 - - -;
#X floatatom 268 358 5 0 0 0 - - -;
#X floatatom 315 358 5 0 0 0 - - -;
#X obj 210 269 r \$0-padframe;
#X text 362 297 DO NOT CONNECT TO A [print] OBJECT!!;
#X text 363 385 Use this outlet to do any further processing on the
output.;
#X obj 219 396 r \$0-padframe;
#X obj 219 452 unpack f f;
#X floatatom 219 497 5 0 0 0 - - -;
#X floatatom 276 496 5 0 0 0 - - -;
#X text 365 419 manta.maxumum is a support object that takes the full
pad data as input and gives you the pad index and value of the current
maximum pad;
#X text 308 430 <-------;
#X text 363 329 The padframe outlet gives the value of all the pads
at once as they're received over USB (around once every 6-8ms). Attempting
to print it all out as it comes will choke your CPU. The data is simply
a list of 48 ints.;
#X floatatom 206 632 5 0 0 0 - - -;
#X floatatom 261 632 5 0 0 0 - - -;
#X floatatom 315 632 5 0 0 0 - - -;
#X obj 227 588 unpack f f f;
#X obj 227 522 r \$0-padframe;
#X obj 8 255 manta;
#X obj 219 430 manta.maximum;
#X obj 227 554 manta.centroid;
#X text 321 552 <-------;
#X text 378 541 manta.centroid is a support object that takes the full
pad data as input and calculates the centroid of all the pads;
#X text 379 600 NOTE: the 'manta' object must be created before the
manta.centroid and manta.maximum support object \, in order to load
the library.;
#X msg 160 385 skip 5;
#X msg 122 411 noskip 5;
#X obj 16 45 bng 45 250 50 0 empty empty Click_to_Connect -20 -15 0
15 -4034 -1 -1;
#X msg 17 507 turbo \$1;
#X obj 17 488 tgl 15 0 empty empty empty 17 7 0 10 -262144 -1 -1 0
1;
#X obj 18 555 tgl 15 0 empty empty empty 17 7 0 10 -262144 -1 -1 0
1;
#X msg 18 574 raw \$1;
#X text -11 402 Additional Controls;
#X obj 219 474 disp -1;
#X text -45 190 Also takes argument for serial number;
#X msg 16 95 connect;
#X text 76 93 Also takes arg for;
#X text 108 107 serial number;
#X text 358 91 Some Examples of controlling a simple single-oscillator
monophonic synth. See the PadMap abstraction for loading a Manta Map
file to map pads to pitches;
#X obj 178 337 disp 0;
#X obj 225 338 disp 0;
#X obj 268 337 disp 0;
#X obj 315 337 disp 0;
#X obj 276 474 disp -1;
#X obj 315 612 disp -1;
#X obj 261 611 disp -1;
#X obj 206 611 disp -1;
#X obj 8 210 r \$0-manta;
#X obj 16 116 s \$0-manta;
#X obj 17 528 s \$0-manta;
#X obj 18 595 s \$0-manta;
#X obj 19 627 tgl 15 0 empty empty empty 17 7 0 10 -262144 -1 -1 0
1;
#X obj 19 667 s \$0-manta;
#X msg 19 646 debug \$1;
#X obj 17 423 tgl 15 0 empty empty empty 17 7 0 10 -262144 -1 -1 0
1;
#X obj 17 463 s \$0-manta;
#X msg 17 442 oneindex \$1;
#X obj 209 209 r \$0-velocity;
#X obj 209 232 print;
#N canvas 738 296 438 318 padnote 0;
#X obj 189 80 inlet;
#X obj 190 279 outlet~;
#X obj 189 103 unpack f f;
#X obj 189 126 PadMap;
#X obj 132 26 loadbang;
#X obj 189 189 route 0 1 2 3 4;
#X obj 189 168 pack f f f;
#X obj 91 233 oscvoice;
#X obj 147 232 oscvoice;
#X obj 202 232 oscvoice;
#X obj 261 232 oscvoice;
#X obj 321 233 oscvoice;
#X msg 132 47 read Wicki-Hayden.map;
#X obj 189 147 manta.poly;
#X connect 0 0 2 0;
#X connect 2 0 3 0;
#X connect 2 1 13 1;
#X connect 3 0 13 0;
#X connect 4 0 12 0;
#X connect 5 0 7 0;
#X connect 5 1 8 0;
#X connect 5 2 9 0;
#X connect 5 3 10 0;
#X connect 5 4 11 0;
#X connect 6 0 5 0;
#X connect 7 0 1 0;
#X connect 8 0 1 0;
#X connect 9 0 1 0;
#X connect 10 0 1 0;
#X connect 11 0 1 0;
#X connect 12 0 3 0;
#X connect 13 0 6 0;
#X connect 13 1 6 1;
#X connect 13 2 6 2;
#X restore 212 98 pd padnote;
#X connect 1 0 0 0;
#X connect 1 0 0 1;
#X connect 5 0 72 0;
#X connect 6 0 5 0;
#X connect 7 0 1 0;
#X connect 11 0 12 0;
#X connect 12 0 52 0;
#X connect 12 1 53 0;
#X connect 12 2 54 0;
#X connect 12 3 55 0;
#X connect 17 0 11 0;
#X connect 20 0 33 0;
#X connect 21 0 46 0;
#X connect 21 1 56 0;
#X connect 30 0 59 0;
#X connect 30 1 58 0;
#X connect 30 2 57 0;
#X connect 31 0 34 0;
#X connect 32 0 2 0;
#X connect 32 1 3 0;
#X connect 32 2 4 0;
#X connect 32 3 8 0;
#X connect 33 0 21 0;
#X connect 34 0 30 0;
#X connect 38 0 33 0;
#X connect 39 0 33 0;
#X connect 40 0 48 0;
#X connect 41 0 62 0;
#X connect 42 0 41 0;
#X connect 43 0 44 0;
#X connect 44 0 63 0;
#X connect 46 0 22 0;
#X connect 48 0 61 0;
#X connect 52 0 13 0;
#X connect 53 0 14 0;
#X connect 54 0 15 0;
#X connect 55 0 16 0;
#X connect 56 0 23 0;
#X connect 57 0 29 0;
#X connect 58 0 28 0;
#X connect 59 0 27 0;
#X connect 60 0 32 0;
#X connect 64 0 66 0;
#X connect 66 0 65 0;
#X connect 67 0 69 0;
#X connect 69 0 68 0;
#X connect 69 0 33 0;
#X connect 70 0 71 0;
#X connect 72 0 0 0;
#X connect 72 0 0 1;
