#N canvas 669 534 477 222 10;
#X obj 27 24 inlet;
#N canvas 0 0 450 300 (subpatch) 0;
#X array \$0-PadMap 48 float 2;
#X coords 0 60 48 0 200 140 1;
#X restore 236 42 graph;
#N canvas 0 0 450 300 readmap 0;
#X obj 182 53 inlet;
#X obj 221 217 outlet;
#X obj 182 74 openpanel;
#X obj 221 194 textfile;
#X msg 177 172 rewind;
#X msg 182 107 read \$1 cr;
#X obj 182 130 t b b a;
#X obj 158 196 until;
#X obj 279 54 inlet;
#X text 78 30 bang to open file dialog;
#X text 258 29 send string to open file;
#X obj 279 75 symbol;
#X connect 0 0 2 0;
#X connect 2 0 5 0;
#X connect 3 0 1 0;
#X connect 3 1 7 1;
#X connect 4 0 3 0;
#X connect 5 0 6 0;
#X connect 6 0 7 0;
#X connect 6 1 4 0;
#X connect 6 2 3 0;
#X connect 7 0 3 0;
#X connect 8 0 11 0;
#X connect 11 0 5 0;
#X restore 27 73 pd readmap;
#X obj 27 96 route #;
#X obj 66 139 swap;
#X obj 66 118 unpack f f;
#X obj 114 72 tabread \$0-PadMap;
#X obj 66 161 tabwrite \$0-PadMap;
#X obj 114 94 outlet;
#X obj 27 50 route open read;
#X connect 0 0 9 0;
#X connect 2 0 3 0;
#X connect 3 1 5 0;
#X connect 4 0 7 0;
#X connect 4 1 7 1;
#X connect 5 0 4 0;
#X connect 5 1 4 1;
#X connect 6 0 8 0;
#X connect 9 0 2 0;
#X connect 9 1 2 1;
#X connect 9 2 6 0;
