#N canvas 487 117 819 300 10;
#X obj 29 201 manta;
#X obj 29 223 list split 1;
#X obj 32 245 hsl 128 15 0 127 0 0 empty empty empty -2 -8 0 10 -262144
-1 -1 0 1;
#X msg 29 179 connect;
#X obj 188 200 manta;
#X obj 188 222 list split 1;
#X obj 191 244 hsl 128 15 0 127 0 0 empty empty empty -2 -8 0 10 -262144
-1 -1 0 1;
#X msg 188 178 connect;
#X obj 354 200 manta;
#X obj 354 222 list split 1;
#X obj 357 244 hsl 128 15 0 127 0 0 empty empty empty -2 -8 0 10 -262144
-1 -1 0 1;
#X msg 354 178 connect;
#X obj 508 199 manta;
#X obj 508 221 list split 1;
#X obj 511 243 hsl 128 15 0 127 0 0 empty empty empty -2 -8 0 10 -262144
-1 -1 0 1;
#X msg 508 177 connect;
#X obj 363 13 tgl 15 0 empty empty empty 17 7 0 10 -262144 -1 -1 0
1;
#X obj 363 41 metro 6;
#X msg 352 119 pad \$1 20;
#N canvas 0 0 450 300 toggle 0;
#X obj 194 40 inlet;
#X obj 168 262 outlet;
#X obj 203 143 + 1;
#X obj 168 145 f 0;
#X obj 206 182 mod 2;
#X connect 0 0 3 0;
#X connect 2 0 4 0;
#X connect 3 0 2 0;
#X connect 3 0 1 0;
#X connect 4 0 3 1;
#X restore 357 70 pd toggle;
#X obj 364 96 + 1;
#X msg 1 9 ledcontrol padandbutton 1;
#X connect 0 3 1 0;
#X connect 1 0 2 0;
#X connect 3 0 0 0;
#X connect 4 3 5 0;
#X connect 5 0 6 0;
#X connect 7 0 4 0;
#X connect 8 3 9 0;
#X connect 9 0 10 0;
#X connect 11 0 8 0;
#X connect 12 3 13 0;
#X connect 13 0 14 0;
#X connect 15 0 12 0;
#X connect 16 0 17 0;
#X connect 17 0 19 0;
#X connect 18 0 0 1;
#X connect 18 0 4 1;
#X connect 19 0 20 0;
#X connect 20 0 18 0;
#X connect 21 0 0 0;
#X connect 21 0 4 0;
